<svg id="Layer_1" data-name="Layer 1" xmlns="http://www.w3.org/2000/svg" xmlns:xlink="http://www.w3.org/1999/xlink" viewBox="0 0 625.54 189.45"><defs><style>.cls-1{fill:url(#linear-gradient);}.cls-2{fill:url(#linear-gradient-2);}.cls-3{fill:url(#linear-gradient-3);}.cls-4{fill:url(#linear-gradient-4);}.cls-5{fill:none;}.cls-23,.cls-6{fill:#00c;}.cls-7{fill:#1106b6;}.cls-19,.cls-20,.cls-21,.cls-24,.cls-25,.cls-28,.cls-29,.cls-8,.cls-9{opacity:0.6;}.cls-8{fill:url(#linear-gradient-5);}.cls-10{clip-path:url(#clip-path);}.cls-11{mask:url(#mask);}.cls-12{fill:url(#linear-gradient-7);}.cls-13{clip-path:url(#clip-path-2);}.cls-14{mask:url(#mask-2);}.cls-15{fill:url(#linear-gradient-8);}.cls-16{clip-path:url(#clip-path-3);}.cls-17{mask:url(#mask-3);}.cls-18{fill:url(#linear-gradient-9);}.cls-19{fill:url(#linear-gradient-10);}.cls-20{fill:url(#linear-gradient-11);}.cls-21{fill:url(#linear-gradient-12);}.cls-22{fill:url(#linear-gradient-13);}.cls-23{stroke:#00c;stroke-linecap:round;stroke-linejoin:round;stroke-width:11.34px;}.cls-24{fill:url(#linear-gradient-14);}.cls-25{fill:url(#linear-gradient-15);}.cls-26{fill:url(#linear-gradient-16);}.cls-27{fill:url(#linear-gradient-17);}.cls-28{fill:url(#linear-gradient-18);}.cls-29{fill:url(#linear-gradient-19);}</style><linearGradient id="linear-gradient" x1="-347.52" y1="422.17" x2="-347.1" y2="422.17" gradientTransform="matrix(-102.1, 0, 0, 102.1, -35237.92, -43022.02)" gradientUnits="userSpaceOnUse"><stop offset="0"/><stop offset="1" stop-color="#4d4d4d"/></linearGradient><linearGradient id="linear-gradient-2" x1="-607.37" y1="242.31" x2="-606.94" y2="242.31" gradientTransform="matrix(0.77, 0, 0, -0.77, 981.65, 219.11)" xlink:href="#linear-gradient"/><linearGradient id="linear-gradient-3" x1="-653.93" y1="328.41" x2="-653.51" y2="328.41" gradientTransform="matrix(0.64, 0, 0, -0.64, 929.44, 332.99)" xlink:href="#linear-gradient"/><linearGradient id="linear-gradient-4" x1="217.54" y1="83.55" x2="243.54" y2="83.55" gradientUnits="userSpaceOnUse"><stop offset="0" stop-color="#1d1d1b" stop-opacity="0.3"/><stop offset="1" stop-color="#00c" stop-opacity="0.2"/></linearGradient><linearGradient id="linear-gradient-5" x1="55.98" y1="119.09" x2="123.23" y2="89.47" gradientUnits="userSpaceOnUse"><stop offset="0" stop-color="#00c" stop-opacity="0.2"/><stop offset="1" stop-color="#1d1d1b"/></linearGradient><clipPath id="clip-path" transform="translate(-19.38 -12.08)"><path class="cls-4" d="M223.18,73.7s-3.06,3.94-.83,19.7h49.29l-13-19.7Z"/></clipPath><mask id="mask" x="198.18" y="58.45" width="55.24" height="26.06" maskUnits="userSpaceOnUse"><g transform="translate(-19.38 -12.08)"><rect class="cls-1" x="218.17" y="72.07" width="54" height="22.98" transform="translate(-4.41 14.29) rotate(-3.31)"/></g></mask><linearGradient id="linear-gradient-7" x1="164.11" y1="422.17" x2="190.11" y2="422.17" gradientTransform="matrix(-102.1, 0, 0, 102.1, -35237.92, -43022.02)" xlink:href="#linear-gradient-4"/><clipPath id="clip-path-2" transform="translate(-19.38 -12.08)"><path class="cls-5" d="M514,36.31l.32-7.56Z"/></clipPath><mask id="mask-2" x="494.6" y="16.67" width="0.32" height="7.56" maskUnits="userSpaceOnUse"><g transform="translate(-19.38 -12.08)"><rect class="cls-2" x="513.98" y="28.75" width="0.32" height="7.56"/></g></mask><linearGradient id="linear-gradient-8" x1="-607.37" y1="242.31" x2="-606.95" y2="242.31" gradientTransform="matrix(0.77, 0, 0, -0.77, 962.27, 207.03)" gradientUnits="userSpaceOnUse"><stop offset="0" stop-color="#fff"/><stop offset="1" stop-color="#1d1d1b"/></linearGradient><clipPath id="clip-path-3" transform="translate(-19.38 -12.08)"><path class="cls-5" d="M510.92,126l.27-6.29Z"/></clipPath><mask id="mask-3" x="491.55" y="107.59" width="0.27" height="6.29" maskUnits="userSpaceOnUse"><g transform="translate(-19.38 -12.08)"><rect class="cls-3" x="510.92" y="119.67" width="0.27" height="6.29"/></g></mask><linearGradient id="linear-gradient-9" x1="-653.93" y1="328.41" x2="-653.51" y2="328.41" gradientTransform="matrix(0.64, 0, 0, -0.64, 910.06, 320.91)" xlink:href="#linear-gradient-8"/><linearGradient id="linear-gradient-10" x1="529.62" y1="107.95" x2="554.52" y2="149.57" gradientUnits="userSpaceOnUse"><stop offset="0" stop-color="#1d1d1b" stop-opacity="0.3"/><stop offset="0.07" stop-color="#17173e" stop-opacity="0.28"/><stop offset="0.3" stop-color="#0a0a8e" stop-opacity="0.24"/><stop offset="0.58" stop-color="#0202bd" stop-opacity="0.21"/><stop offset="1" stop-color="#00c" stop-opacity="0.2"/></linearGradient><linearGradient id="linear-gradient-11" x1="522.32" y1="62.84" x2="471.65" y2="61.61" xlink:href="#linear-gradient-10"/><linearGradient id="linear-gradient-12" x1="302.77" y1="111.76" x2="276.34" y2="140.06" xlink:href="#linear-gradient-10"/><linearGradient id="linear-gradient-13" x1="311.5" y1="62.32" x2="350.16" y2="61.82" xlink:href="#linear-gradient-10"/><linearGradient id="linear-gradient-14" x1="414.44" y1="64.62" x2="414.44" y2="140.92" xlink:href="#linear-gradient-10"/><linearGradient id="linear-gradient-15" x1="414.44" y1="-182.99" x2="414.44" y2="-157.45" gradientTransform="matrix(1, 0, 0, -1, 0, -137.96)" xlink:href="#linear-gradient-10"/><linearGradient id="linear-gradient-16" x1="612.88" y1="159.62" x2="612.88" y2="205.96" xlink:href="#linear-gradient-10"/><linearGradient id="linear-gradient-17" x1="589.69" y1="159.62" x2="589.69" y2="205.96" xlink:href="#linear-gradient-10"/><linearGradient id="linear-gradient-18" x1="619.88" y1="119.38" x2="630.92" y2="153.27" gradientUnits="userSpaceOnUse"><stop offset="0" stop-color="#1d1d1b" stop-opacity="0.3"/><stop offset="0.03" stop-color="#1b1b28" stop-opacity="0.29"/><stop offset="0.41" stop-color="#0606a5" stop-opacity="0.14"/><stop offset="1" stop-color="#00c" stop-opacity="0.1"/></linearGradient><linearGradient id="linear-gradient-19" x1="625.03" y1="62.98" x2="574.36" y2="61.76" xlink:href="#linear-gradient-10"/></defs><title>logo_wt_popup</title><path class="cls-6" d="M283.23,69.46a42.82,42.82,0,0,0-4.56-10.21,46.75,46.75,0,0,0-7.05-8.8,45.21,45.21,0,0,0-19.56-11.37,42.8,42.8,0,0,0-11.58-1.58A44.1,44.1,0,0,0,228,39.21,44.81,44.81,0,0,0,217.09,44a44,44,0,0,0-9.1,7.44A47.44,47.44,0,0,0,201.09,61a48.66,48.66,0,0,0-5.93,23.38A45.13,45.13,0,0,0,199,103.15a47.66,47.66,0,0,0,10.5,15,48.89,48.89,0,0,0,34,13.57,43.53,43.53,0,0,0,16.76-3.28,48,48,0,0,0,12.62-7.67h0c.27-.23.54-.45.8-.68h0a11.06,11.06,0,0,0,3.3-6.34,10.52,10.52,0,0,0,.13-1.72,11,11,0,0,0-10.93-11.08l-.68,0a10.71,10.71,0,0,0-4.4,1.25h0c-.21.1-.42.23-.61.35l-.05,0-.33.22-.14.09c-1.14.76-3.89,2.53-5.17,3.19-.15.08-.28.13-.38.19l-.53.23a2,2,0,0,1-.31.12l-1.19.46a39.37,39.37,0,0,1-5.29,1.43,27.21,27.21,0,0,1-5.32.54,25.63,25.63,0,0,1-6.11-.79,20.2,20.2,0,0,1-6.12-2.62,18.28,18.28,0,0,1-5.07-4.93A17.9,17.9,0,0,1,221.62,93h51.79a32.24,32.24,0,0,0,6.87-.55,5.36,5.36,0,0,0,3.34-1.94,6.87,6.87,0,0,0,1.12-3.78c.07-1.58.1-3.62.1-6.11A39,39,0,0,0,283.23,69.46Zm-60.73,3.13a26.4,26.4,0,0,1,7.11-9.06,20.63,20.63,0,0,1,4.93-3A13.88,13.88,0,0,1,240,59.43a20.73,20.73,0,0,1,6.79,1,17.57,17.57,0,0,1,5.18,2.8,22.37,22.37,0,0,1,4,4.18,41.44,41.44,0,0,1,3.28,5.18Z" transform="translate(-19.38 -12.08)"/><path class="cls-7" d="M188.16,50v34.8a49.38,49.38,0,0,1-14.88,33,48,48,0,0,1-33.68,14.08A49.22,49.22,0,0,1,103,115.6,47.3,47.3,0,0,1,67,131.76c-25.5,0-46.84-21-47.66-46.85a2.6,2.6,0,0,1,0-.4v-33a4.08,4.08,0,0,1,.13-.94l0-.13a12.24,12.24,0,0,1,1.36-4.57,13,13,0,0,1,23.07,0,10.34,10.34,0,0,1,.78,2.24l0,.22a10.19,10.19,0,0,1,.3,2.74V85.78A21.23,21.23,0,0,0,51.91,101a23.25,23.25,0,0,0,16,6.26,23,23,0,0,0,15.66-6A21.41,21.41,0,0,0,90.5,86.57v-35A12.19,12.19,0,0,1,92,45.9a13.43,13.43,0,0,1,11.85-7,13.12,13.12,0,0,1,11.71,7,11.17,11.17,0,0,1,1.31,5.26V86.59a20.63,20.63,0,0,0,7,14.66,23.34,23.34,0,0,0,15.83,6c12.37,0,22.29-9.45,22.57-21.51V51.44a2.16,2.16,0,0,1,.14-.73,12.37,12.37,0,0,1,1.13-4.34,1.42,1.42,0,0,1,.17-.29,13.19,13.19,0,0,1,23.65.23,1.8,1.8,0,0,1,.17.68,14.84,14.84,0,0,1,.6,2.59v.06A3,3,0,0,1,188.16,50Z" transform="translate(-19.38 -12.08)"/><path class="cls-8" d="M67.93,107.26S89.2,108,90.55,85.32c0,0,3.38,22.32,12.42,30.28a46.78,46.78,0,0,1-44,15.91,41.9,41.9,0,0,1-24.32-12.8L50.19,99.19S55.44,106.78,67.93,107.26Z" transform="translate(-19.38 -12.08)"/><g class="cls-9"><path class="cls-4" d="M223.18,73.7s-3.06,3.94-.83,19.7h49.29l-13-19.7Z" transform="translate(-19.38 -12.08)"/><g class="cls-10"><g class="cls-11"><rect class="cls-12" x="218.17" y="72.07" width="54" height="22.98" transform="translate(-23.79 2.21) rotate(-3.31)"/></g></g></g><g class="cls-13"><g class="cls-14"><rect class="cls-15" x="494.6" y="16.67" width="0.32" height="7.56"/></g></g><g class="cls-16"><g class="cls-17"><rect class="cls-18" x="491.55" y="107.59" width="0.27" height="6.29"/></g></g><path class="cls-6" d="M542.17,55.43V48.69c0-.32-.11-.67-.17-1a11.89,11.89,0,0,0-22.38-2.53,46.48,46.48,0,0,1,22.56,36.44Zm0,32.77a46.49,46.49,0,0,1-23,36.74v6.46h23Z" transform="translate(-19.38 -12.08)"/><path class="cls-6" d="M542.17,55.37V48.63c0-.32-.11-.67-.17-1a11.89,11.89,0,0,0-22.38-2.53,46.48,46.48,0,0,1,22.56,36.44Z" transform="translate(-19.38 -12.08)"/><path class="cls-19" d="M542.21,131.33h-23v-6.46a46.49,46.49,0,0,0,23-36.74Z" transform="translate(-19.38 -12.08)"/><path class="cls-6" d="M542.19,81.57a46.48,46.48,0,0,0-22.56-36.44,47.39,47.39,0,0,0-24.49-6.77H495c-26,.05-47.08,20.9-47.08,46.51,0,24.65,19.55,44.89,44.17,46.42,1,.06,2,.09,3,.09a47.36,47.36,0,0,0,24.06-6.52,46.49,46.49,0,0,0,23-36.74Zm-47.06,28.1q-.95,0-1.89-.07h0a24.78,24.78,0,0,1,1.61-49.52h.28a24.8,24.8,0,1,1,0,49.59Z" transform="translate(-19.38 -12.08)"/><path class="cls-20" d="M448,84.87c0-25.62,21.11-46.46,47.08-46.51h.1a47.39,47.39,0,0,1,24.49,6.77v34.1a25.13,25.13,0,0,0-24.49-19.16h-.28A25,25,0,0,0,470,84.87" transform="translate(-19.38 -12.08)"/><path class="cls-6" d="M296.31,102.07c-.18-.43-.35-.87-.51-1.31-.11-.27-.2-.55-.29-.83s-.11-.34-.17-.51h0c-.11-.29-.2-.57-.28-.86l-.15-.48-.07-.25c-.13-.44-.26-.88-.37-1.33-.06-.22-.11-.44-.17-.67a1,1,0,0,1,0-.17,3.4,3.4,0,0,1-.08-.34c-.12-.46-.22-.93-.31-1.4-.06-.28-.12-.57-.16-.85v0c0-.21-.07-.42-.11-.63l-.09-.6c0-.25-.08-.5-.11-.75,0,0,0,0,0,0-.06-.46-.12-.93-.16-1.4s-.09-.93-.13-1.4l0,43.14v.06h23V125A46.76,46.76,0,0,1,296.31,102.07Z" transform="translate(-19.38 -12.08)"/><path class="cls-21" d="M316.11,124.9v6.46h-23l0-43.14c0,.47.08.93.13,1.4,0,.32.07.64.11,1,0,0,0,.09,0,.14a3,3,0,0,0,0,.31h0v0c0,.25.07.5.11.75l.09.6c0,.21.07.42.11.63v0c.05.24.09.48.14.72,0,0,0,.09,0,.13.07.32.13.63.21.94s.06.31.1.46a3.4,3.4,0,0,0,.08.34,1,1,0,0,0,0,.17c.06.23.11.45.17.67.11.45.24.89.37,1.33l.07.25.15.48c.09.29.18.58.28.86h0c.06.17.11.34.17.51s.11.33.18.5.07.22.11.33c.12.32.24.64.37,1,0,.12.1.24.14.36l.31.73h0l.08.18v0c.11.27.23.53.35.79.26.58.53,1.16.83,1.73.13.28.27.55.42.82,0,0,0,0,0,0,.18.36.38.71.58,1.06s.34.6.52.9.45.74.68,1.11.6.94.93,1.4q.25.39.54.78c.19.28.39.55.6.82l.06.07c.2.28.42.56.64.84a41.12,41.12,0,0,0,2.88,3.32c.23.26.48.51.73.76s.75.74,1.13,1.1l.09.09q.56.52,1.14,1l0,0,0,0c.23.21.47.41.71.6s.6.52.91.76.76.6,1.15.89l.13.1.94.67c.25.19.51.36.77.53a5.9,5.9,0,0,0,.52.35l.54.35C315.06,124.28,315.58,124.59,316.11,124.9Z" transform="translate(-19.38 -12.08)"/><path class="cls-6" d="M340.27,38.39h-.1a47.33,47.33,0,0,0-24.49,6.77h0a.07.07,0,0,0,0,0v34s0,0,0,0c.08-.33.16-.65.26-1a21,21,0,0,1,.72-2.16c.07-.18.14-.36.22-.54s.13-.31.2-.46.21-.49.33-.73.3-.62.47-.93.32-.6.5-.9.35-.59.53-.87l0,0c.18-.28.36-.55.56-.82a17.74,17.74,0,0,1,1.25-1.63,23.89,23.89,0,0,1,2.31-2.41c.12-.12.25-.24.38-.35.32-.29.65-.56,1-.83A21.31,21.31,0,0,1,327,63.8a9.71,9.71,0,0,1,.9-.52c.3-.18.61-.34.92-.49l1-.49a8.63,8.63,0,0,1,.87-.37c.32-.14.65-.26,1-.37s.67-.23,1-.33a20,20,0,0,1,2.06-.54l1-.21.14,0a8.23,8.23,0,0,1,.85-.13l.19,0,.8-.09c.43,0,.86-.07,1.29-.09s.74,0,1.11,0h.28A25.29,25.29,0,0,1,358,67.47a24.85,24.85,0,0,1,5.33,7.85,25.42,25.42,0,0,1,1.17,3.43c.12.47.23.94.32,1.41.14.73.25,1.47.33,2.23a23.05,23.05,0,0,1,.13,2.51h22C387.33,59.29,366.22,38.44,340.27,38.39Z" transform="translate(-19.38 -12.08)"/><path class="cls-22" d="M387.33,84.9h-22a23.05,23.05,0,0,0-.13-2.51c-.08-.76-.19-1.5-.33-2.23-.09-.47-.2-.94-.32-1.41a25.42,25.42,0,0,0-1.17-3.43A24.85,24.85,0,0,0,358,67.47a25.29,25.29,0,0,0-17.59-7.36h-.28l-1.11,0c-.43,0-.86,0-1.29.09l-.8.09-.19,0-.85.13-.14,0-1,.21c-.69.15-1.38.33-2.06.54-.33.1-.67.21-1,.33l-1,.37a8.63,8.63,0,0,0-.87.37l-1,.49c-.31.16-.62.32-.92.49l-.9.52a26.11,26.11,0,0,0-2.54,1.77c-.34.27-.67.54-1,.83-.13.11-.26.23-.38.35a23.89,23.89,0,0,0-2.31,2.41c-.44.52-.86,1.07-1.25,1.63-.19.27-.38.54-.56.82l0,0c-.18.29-.36.58-.53.87s-.34.6-.5.9-.32.61-.47.93-.23.48-.33.73-.14.3-.2.46-.15.36-.22.54a21,21,0,0,0-.72,2.16c-.1.32-.18.64-.26,1,0,0,0,0,0,0V45.16a47.33,47.33,0,0,1,24.49-6.77h.1C366.22,38.44,387.33,59.29,387.33,84.9Z" transform="translate(-19.38 -12.08)"/><path class="cls-6" d="M387.33,84.9c0,24.65-19.55,44.89-44.17,46.43q-1.48.09-3,.09a47.39,47.39,0,0,1-24.06-6.52c-.52-.31-1-.62-1.54-1l-.54-.35c-.18-.11-.35-.23-.52-.35s-.52-.34-.77-.53l-.94-.67-.13-.1c-.39-.29-.77-.58-1.15-.89s-.61-.49-.91-.76-.48-.4-.71-.6l0,0,0,0c-.39-.33-.77-.68-1.14-1l-.09-.09c-.39-.36-.76-.73-1.13-1.1s-.5-.5-.73-.76a41.12,41.12,0,0,1-2.88-3.32c-.22-.28-.43-.55-.64-.84l-.06-.07c-.21-.27-.41-.54-.6-.82s-.37-.52-.54-.78c-.33-.46-.64-.93-.93-1.4s-.46-.74-.68-1.11-.35-.6-.52-.9-.4-.7-.58-1.06c0,0,0,0,0,0-.14-.27-.29-.54-.42-.82-.3-.57-.57-1.15-.83-1.73-.12-.26-.24-.53-.35-.79a.58.58,0,0,1,0-.11l0-.1-.31-.73c0-.12-.09-.24-.14-.36-.17-.43-.33-.85-.48-1.28-.07-.17-.13-.34-.18-.5s-.11-.34-.17-.51h0c-.1-.28-.19-.57-.28-.86l-.15-.48-.07-.25c-.13-.45-.25-.89-.37-1.33-.06-.22-.11-.44-.17-.67a1,1,0,0,1,0-.17,3.4,3.4,0,0,1-.08-.34c0-.15-.07-.3-.1-.46-.08-.35-.16-.71-.23-1.07s-.09-.48-.14-.72v0c0-.21-.07-.42-.11-.63l-.09-.6c0-.25-.08-.5-.11-.75v0c0-.1,0-.21,0-.31s0-.09,0-.14c0-.31-.08-.63-.11-1,0-.47-.09-.93-.13-1.4V81.6l0-21.57h0V22c0-.3.1-.65.16-.94a11.36,11.36,0,0,1,22.23,0c.06.29.13.64.16.94V45.15h0a.07.07,0,0,0,0,0v34A24.38,24.38,0,0,0,315,84.9a25,25,0,0,0,25.15,24.8c.63,0,1.26,0,1.89-.07A25,25,0,0,0,365.31,84.9Z" transform="translate(-19.38 -12.08)"/><path class="cls-6" d="M315.68,45.16v0a.07.07,0,0,1,0,0Z" transform="translate(-19.38 -12.08)"/><path class="cls-6" d="M402.94,29.23l0,102.39h23l0-102.39m0,0V22.58a9.76,9.76,0,0,0-.16-1,11.58,11.58,0,0,0-22.69,0c-.06.3-.12.66-.16,1v6.65" transform="translate(-19.38 -12.08)"/><path class="cls-23" d="M442.46,61.63V49.79l-45.25,0V61.64h45.25" transform="translate(-19.38 -12.08)"/><path class="cls-24" d="M402.94,67.32l0,64.23h23l0-64.23Z" transform="translate(-19.38 -12.08)"/><path class="cls-25" d="M426,44.13l0-21.5h-23l0,21.5Z" transform="translate(-19.38 -12.08)"/><path class="cls-6" d="M612.88,201.53a9.09,9.09,0,0,1-9.09-9.09v-45a9.09,9.09,0,1,1,18.18,0v45a9.09,9.09,0,0,1-9.09,9.09Z" transform="translate(-19.38 -12.08)"/><path class="cls-6" d="M589.69,179.94c-3.43,0-6.21-2.28-6.21-5.09V149.63c0-2.81,2.78-5.09,6.21-5.09s6.21,2.28,6.21,5.09v25.22c0,2.81-2.78,5.09-6.21,5.09Z" transform="translate(-19.38 -12.08)"/><path class="cls-26" d="M612.88,201.53a9.09,9.09,0,0,1-9.09-9.09v-45a9.09,9.09,0,1,1,18.18,0v45a9.09,9.09,0,0,1-9.09,9.09Z" transform="translate(-19.38 -12.08)"/><path class="cls-27" d="M589.69,179.94c-3.43,0-6.21-2.28-6.21-5.09V149.63c0-2.81,2.78-5.09,6.21-5.09s6.21,2.28,6.21,5.09v25.22c0,2.81-2.78,5.09-6.21,5.09Z" transform="translate(-19.38 -12.08)"/><path class="cls-6" d="M644.89,88.34V81.71c0-.46-.07-.92-.13-1.38s-.1-.93-.16-1.39c-.13-.92-.28-1.82-.45-2.72h0a46.67,46.67,0,0,0-21.82-30.88s0,0,0,0h0a47.44,47.44,0,0,0-24.49-6.77h-.1c-26,0-47.08,20.9-47.08,46.51,0,24.66,19.56,44.9,44.18,46.43q1.49.09,3,.09a47.31,47.31,0,0,0,21.85-5.31,14.29,14.29,0,0,1-3.47,7,21.34,21.34,0,0,1-5.15,3.94,25.23,25.23,0,0,1-6.28,2.44,27,27,0,0,1-6.45.83c-1.24,0-2.62-.06-4.16-.18a28,28,0,0,1-9.27-2.33,13.69,13.69,0,0,1-3.94-2.64c-1.61-1.19-2.93-1.74-4-1.65a5.58,5.58,0,0,0-3.36,2.06l-6.52,9a6.88,6.88,0,0,0-1.14,2.51,5.23,5.23,0,0,0,0,2.23,4.91,4.91,0,0,0,.86,1.85,7.31,7.31,0,0,0,1.44,1.45,33.86,33.86,0,0,0,7,4.7,50.72,50.72,0,0,0,8.17,3.33,59.68,59.68,0,0,0,8.48,2,53.39,53.39,0,0,0,8,.65,51.94,51.94,0,0,0,17.85-3,40,40,0,0,0,24-22.94,45.34,45.34,0,0,0,3.18-12.89c0-.22,0-.45.07-.68Zm-47,21.48c-.64,0-1.27,0-1.89-.07a25.25,25.25,0,0,1-16.5-7.83A24.54,24.54,0,0,1,572.69,85a25,25,0,0,1,24.86-24.79h.29a24.8,24.8,0,1,1,0,49.59Z" transform="translate(-19.38 -12.08)"/><path class="cls-6" d="M644.88,55.58V48.84c0-.31-.11-.67-.17-1a11.89,11.89,0,0,0-22.36-2.58s0,0,0,0a46.67,46.67,0,0,1,21.82,30.88h0c.18.9.33,1.81.45,2.72.06.46.11.93.16,1.39s.1.92.13,1.38Z" transform="translate(-19.38 -12.08)"/><path class="cls-6" d="M644.88,55.52V48.78c0-.32-.11-.67-.17-1a11.89,11.89,0,0,0-22.38-2.52,46.48,46.48,0,0,1,22.56,36.44Z" transform="translate(-19.38 -12.08)"/><path class="cls-28" d="M642.86,134.19c-.17.49-7.35,21.34-22.85,23.59-3.46.5-23.24-.08-24.12-5.5-.94-5.71,17.12-16.29,17.47-16.53a14.37,14.37,0,0,0,6.35-9.48c14.18-7.6,24-21.12,25.2-36.74v34.33A56.66,56.66,0,0,1,642.86,134.19Z" transform="translate(-19.38 -12.08)"/><path class="cls-6" d="M622.35,45.29s0,0,0,0a46.67,46.67,0,0,1,21.82,30.88A46.63,46.63,0,0,0,622.35,45.29Z" transform="translate(-19.38 -12.08)"/><path class="cls-29" d="M550.67,85c0-25.62,21.11-46.46,47.08-46.51h.1a47.4,47.4,0,0,1,24.49,6.77v34.1a25.13,25.13,0,0,0-24.49-19.16h-.28A25,25,0,0,0,572.69,85" transform="translate(-19.38 -12.08)"/></svg>